<svg width="100" height="100" viewBox="0 0 100 100" fill="none" xmlns="http://www.w3.org/2000/svg">
<g id="Theme=dark">
<rect width="100" height="100" rx="16" fill="black"/>
<g id="logo-square">
<path id="circle" fill-rule="evenodd" clip-rule="evenodd" d="M51.7391 16.7391C69.3882 16.7391 83.6957 31.0466 83.6957 48.6957C83.6957 66.3448 69.3882 80.6522 51.7391 80.6522C34.09 80.6522 19.7826 66.3448 19.7826 48.6957C19.7826 31.0466 34.09 16.7391 51.7391 16.7391ZM51.9391 23.6957C38.0216 23.6957 26.7391 34.9781 26.7391 48.8956C26.7391 62.8132 38.0215 74.0956 51.9391 74.0956C65.8567 74.0956 77.1391 62.8132 77.1391 48.8956C77.1391 34.9781 65.8567 23.6957 51.9391 23.6957Z" fill="white"/>
<path id="tiny-circle" d="M51.7952 41.6958C55.6921 41.6959 58.8511 44.8548 58.8511 48.7517C58.851 52.6486 55.6921 55.8076 51.7952 55.8076C47.8983 55.8076 44.7393 52.6486 44.7393 48.7517C44.7393 44.8548 47.8983 41.6958 51.7952 41.6958Z" fill="white"/>
<path id="leg" d="M42.5841 58.4783V85.4577C42.2853 85.4708 41.9852 85.4781 41.6839 85.4781C28.9886 85.4781 18.4864 73.7436 16.7395 58.4783H42.5841Z" fill="#FCFCFC" fill-opacity="0.666667"/>
</g>
</g>
</svg>
